
<svg width="0" height="0" viewBox="0 0 0 0" style="display:none" xmlns="http://www.w3.org/2000/svg">

<symbol id="linkedin" width="25" height="24" viewBox="0 0 25 24">
<path d="M17.3931 20.4495H20.9491L20.9506 14.1671C20.9506 11.0829 20.2861 8.71211 16.6819 8.71211C15.304 8.66096 14.0097 9.37182 13.3136 10.562H13.2658V8.99697H9.85203V20.4492H13.4081V14.7838C13.4081 13.2899 13.6915 11.843 15.5436 11.843C17.3694 11.843 17.3931 13.5525 17.3931 14.8805V20.4495Z" fill="white"/>
<path d="M3.77563 5.36823C3.77584 6.50797 4.69992 7.43173 5.83962 7.43153C6.38693 7.43143 6.91178 7.21392 7.29872 6.82683C7.68565 6.43975 7.90297 5.91481 7.90287 5.36749C7.90267 4.22776 6.97859 3.30399 5.83888 3.3042C4.69918 3.3044 3.77543 4.2285 3.77563 5.36823Z" fill="white"/>
<path d="M4.0579 20.4495H7.61765V8.99697H4.0579V20.4495Z" fill="white"/>
</symbol>

<symbol id="facebook" width="25" height="24" viewBox="0 0 25 24">
<g clip-path="url(#clip0_184_26)">
<path d="M17.1711 15.4688L17.7031 12H14.375V9.74899C14.375 8.80001 14.8399 7.875 16.3305 7.875H17.8437V4.92188C17.8437 4.92188 16.4704 4.6875 15.1575 4.6875C12.4165 4.6875 10.625 6.34875 10.625 9.35625V12H7.57809V15.4688H10.625V23.8542C11.2359 23.9501 11.8621 24 12.5 24C13.1378 24 13.764 23.9501 14.375 23.8542V15.4688H17.1711Z" fill="white"/>
</g>
<defs>
<clipPath id="clip0_184_26">
<rect width="24" height="24" fill="CurrentColor" transform="translate(0.5)"/>
</clipPath>
</defs>
</symbol>

<symbol id="twitter" width="25" height="24" viewBox="0 0 25 24">
<path d="M22.043 6.99451C22.0576 7.2115 22.0576 7.42848 22.0576 7.64746C22.0576 14.32 17.1045 22.0154 8.04759 22.0154V22.0114C5.37215 22.0154 2.75229 21.2294 0.5 19.7476C0.889031 19.7955 1.28001 19.8195 1.67197 19.8205C3.88915 19.8225 6.04296 19.0596 7.78726 17.6547C5.68026 17.6137 3.8326 16.2048 3.18714 14.148C3.92523 14.294 4.68574 14.264 5.41018 14.061C3.11304 13.585 1.46039 11.5152 1.46039 9.11135C1.46039 9.08935 1.46039 9.06836 1.46039 9.04736C2.14485 9.43833 2.91121 9.65531 3.69512 9.67931C1.53157 8.19642 0.864656 5.24464 2.17118 2.93682C4.67111 6.09158 8.3596 8.00944 12.3191 8.21242C11.9223 6.45855 12.4644 4.62069 13.7436 3.38778C15.7268 1.47593 18.8459 1.57392 20.7101 3.60677C21.8129 3.38378 22.8698 2.96882 23.837 2.38086C23.4694 3.54977 22.7001 4.5427 21.6725 5.17365C22.6484 5.05566 23.602 4.78768 24.5 4.37871C23.8389 5.39463 23.0063 6.27957 22.043 6.99451Z" fill="white"/>
</symbol>

<symbol id="pintrest" width="25" height="24" viewBox="0 0 25 24">
<g clip-path="url(#clip0_184_32)">
<path d="M12.4951 0C5.86076 0 0.5 5.37062 0.5 11.9951C0.5 17.0794 3.65919 21.4233 8.12156 23.1707C8.01296 22.2229 7.92411 20.7618 8.16104 19.7252C8.37824 18.7873 9.56293 13.7622 9.56293 13.7622C9.56293 13.7622 9.20754 13.0416 9.20754 11.9852C9.20754 10.3167 10.175 9.07281 11.3795 9.07281C12.4062 9.07281 12.8998 9.84286 12.8998 10.761C12.8998 11.7877 12.2482 13.3278 11.9027 14.7594C11.6164 15.9539 12.5049 16.9313 13.6798 16.9313C15.8122 16.9313 17.4511 14.6804 17.4511 11.4422C17.4511 8.56932 15.3877 6.5652 12.4358 6.5652C9.01995 6.5652 7.01583 9.12216 7.01583 11.768C7.01583 12.7947 7.41073 13.9004 7.90436 14.5027C8.0031 14.6211 8.01296 14.7297 7.98334 14.8482C7.8945 15.2234 7.68716 16.0428 7.64768 16.2106C7.59831 16.4278 7.46996 16.4772 7.2429 16.3686C5.76202 15.6577 4.83402 13.4661 4.83402 11.7088C4.83402 7.92761 7.57856 4.45248 12.7616 4.45248C16.9179 4.45248 20.1561 7.41422 20.1561 11.383C20.1561 15.5195 17.5498 18.8466 13.9364 18.8466C12.7221 18.8466 11.5769 18.2147 11.1919 17.4644C11.1919 17.4644 10.5897 19.7548 10.4416 20.3176C10.175 21.3641 9.44446 22.6672 8.95083 23.4669C10.0763 23.8124 11.261 24 12.5049 24C19.1294 24 24.5 18.6294 24.5 12.0049C24.4901 5.37062 19.1195 0 12.4951 0Z" fill="white"/>
</g>
<defs>
<clipPath id="clip0_184_32">
<rect x="0.5" width="24" height="24" rx="6" fill="white"/>
</clipPath>
</defs>
</symbol>

<symbol id="mobile" width="25" height="24" viewBox="0 0 25 24">
<path d="M16.5 1H8.5C7.12 1 6 2.12 6 3.5V20.5C6 21.88 7.12 23 8.5 23H16.5C17.88 23 19 21.88 19 20.5V3.5C19 2.12 17.88 1 16.5 1ZM12.5 22C11.67 22 11 21.33 11 20.5C11 19.67 11.67 19 12.5 19C13.33 19 14 19.67 14 20.5C14 21.33 13.33 22 12.5 22ZM17 18H8V4H17V18Z" fill="white"/>
</symbol>

<symbol id="email" width="25" height="24" viewBox="0 0 25 24">
<path d="M22.5 6C22.5 4.9 21.6 4 20.5 4H4.5C3.4 4 2.5 4.9 2.5 6V18C2.5 19.1 3.4 20 4.5 20H20.5C21.6 20 22.5 19.1 22.5 18V6ZM20.5 6L12.5 10.99L4.5 6H20.5ZM20.5 18H4.5V8L12.5 13L20.5 8V18Z" fill="white"/>
</symbol>

<symbol id="location" width="25" height="24" viewBox="0 0 25 24">
<path d="M12.5 12C11.4 12 10.5 11.1 10.5 10C10.5 8.9 11.4 8 12.5 8C13.6 8 14.5 8.9 14.5 10C14.5 11.1 13.6 12 12.5 12ZM18.5 10.2C18.5 6.57 15.85 4 12.5 4C9.15 4 6.5 6.57 6.5 10.2C6.5 12.54 8.45 15.64 12.5 19.34C16.55 15.64 18.5 12.54 18.5 10.2ZM12.5 2C16.7 2 20.5 5.22 20.5 10.2C20.5 13.52 17.83 17.45 12.5 22C7.17 17.45 4.5 13.52 4.5 10.2C4.5 5.22 8.3 2 12.5 2Z" fill="white"/>
</symbol>

</svg>
